<svg width="88" height="88" viewBox="0 0 88 88" fill="none" xmlns="http://www.w3.org/2000/svg">
<path d="M65.0288 12.0705C65.0263 12.0691 65.0242 12.0666 65.0217 12.0652C65.0139 12.0603 65.0058 12.0557 64.998 12.0504C64.672 11.8409 64.3421 11.6382 64.0094 11.4386C63.9137 11.3811 63.8176 11.3249 63.7216 11.2684C63.4475 11.107 63.1706 10.9491 62.8922 10.7944C62.8181 10.7534 62.7446 10.711 62.6704 10.6704C62.3282 10.4836 61.9827 10.302 61.6341 10.1254C61.5497 10.0827 61.4646 10.0414 61.3795 9.99897C61.0906 9.85486 60.7988 9.71464 60.5056 9.5776C60.4202 9.53804 60.3354 9.49742 60.2496 9.45821C59.8875 9.29256 59.523 9.13186 59.155 8.97715C59.0974 8.95278 59.0388 8.93018 58.9809 8.9058C58.6598 8.773 58.3366 8.64443 58.011 8.52011C57.9206 8.48549 57.8298 8.45053 57.7386 8.41662C57.3575 8.27428 56.974 8.13582 56.5872 8.00514C56.5816 8.00337 56.5763 8.0016 56.571 7.99984C56.1923 7.87233 55.8102 7.75224 55.4262 7.63604C55.3319 7.60743 55.2376 7.57953 55.143 7.55162C54.7848 7.44637 54.4256 7.34571 54.0632 7.25069C54.0265 7.24116 53.9905 7.23056 53.9534 7.22102C53.5588 7.1186 53.1611 7.02429 52.7617 6.93422C52.6642 6.91232 52.5663 6.89149 52.4689 6.87029C52.1375 6.79859 51.8055 6.73113 51.4714 6.66826C51.3884 6.65272 51.3058 6.63577 51.2224 6.62058C50.8243 6.54817 50.4242 6.48212 50.0226 6.42208C49.9265 6.4076 49.8297 6.39523 49.7333 6.38181C49.4083 6.3359 49.0823 6.29387 48.7549 6.25643C48.6451 6.24371 48.5352 6.23064 48.425 6.21899C48.021 6.1759 47.6155 6.1381 47.2082 6.10773C47.1316 6.10208 47.055 6.09854 46.9787 6.09325C46.6329 6.06958 46.286 6.05086 45.9381 6.03638C45.8194 6.03144 45.7008 6.02684 45.5817 6.02296C45.1643 6.00918 44.7446 6 44.3229 6C23.1572 6.00071 6.00212 23.1565 6 44.3222C6 44.8312 6.01307 45.337 6.03285 45.8414C6.03638 45.9261 6.03885 46.0109 6.04238 46.0957C6.06464 46.5799 6.09607 47.0617 6.13598 47.5413C6.13952 47.5795 6.14057 47.6183 6.1434 47.6565C6.14446 47.666 6.14764 47.6748 6.1487 47.6844C7.85326 67.2751 24.2903 82.6448 44.3229 82.6455C65.4886 82.6444 82.6441 65.4879 82.6451 44.3226C82.6444 30.7843 75.6256 18.888 65.0288 12.0705ZM59.4997 15.6128C62.6704 19.7573 64.097 24.5393 64.0988 29.4128C64.1087 39.3156 58.13 49.5648 48.8344 54.8968C44.2283 57.5433 39.1556 58.8113 34.1528 58.8113C24.268 58.8085 14.6937 53.8637 9.54334 44.8428C9.54086 44.6687 9.53239 44.4967 9.53239 44.3222C9.567 25.109 25.1097 9.567 44.3229 9.53239C44.6768 9.53239 45.0286 9.54122 45.3797 9.55181C45.5711 9.55782 45.7619 9.56524 45.9526 9.57442C46.0847 9.58042 46.2164 9.58855 46.3482 9.59596C49.1014 9.75844 51.7681 10.2402 54.3122 11.0042C56.2379 12.1143 57.9771 13.6324 59.4997 15.6128ZM44.3229 79.1128C26.5098 79.0806 11.8543 65.7182 9.78493 48.4593C15.5319 56.3227 24.7314 60.5791 34.1528 60.5773C39.4537 60.5773 44.8322 59.232 49.7142 56.4269C59.5566 50.7611 65.8549 40.0188 65.8652 29.4124C65.8673 24.1953 64.3217 19.0046 60.9019 14.5387C60.5251 14.0442 60.1291 13.5833 59.724 13.1393C71.2003 18.8245 79.0887 30.6412 79.1138 44.3219C79.0781 63.5354 63.5361 79.0781 44.3229 79.1128Z" fill="white"/>
<path d="M42.9196 12.3612C37.8102 12.3651 32.1466 14.2809 26.3978 17.5978C16.897 23.123 12.8846 33.5125 12.8592 39.4802C12.8645 40.8224 13.0545 41.9643 13.5352 42.8642C17.8224 50.7668 26.0309 55.0889 34.4558 55.0868C38.6501 55.0868 42.9076 54.0173 46.7703 51.7876C54.558 47.281 59.5343 38.7544 59.5453 30.3149C59.5474 26.1644 58.3221 22.0259 55.6102 18.4702C52.4257 14.2685 47.9277 12.3467 42.9196 12.3612ZM57.7796 30.3146C57.7895 38.0543 53.1276 46.0879 45.888 50.2582C42.3008 52.3283 38.3513 53.3205 34.4562 53.3205C26.6239 53.3173 19.0424 49.3155 15.0883 42.0218C14.8198 41.5418 14.6206 40.638 14.6256 39.4798C14.6001 34.2139 18.4426 24.1897 27.2805 19.1268C32.8477 15.9095 38.2598 14.123 42.9196 14.1272C47.4986 14.1403 51.3298 15.7845 54.2062 19.5394C56.6688 22.7751 57.7775 26.5056 57.7796 30.3146Z" fill="white"/>
<path d="M72.2129 55.1072C72.0317 55.0331 71.8254 55.1185 71.7509 55.2983C68.3948 63.3994 61.809 70.052 53.3095 73.4484C53.1283 73.5204 53.04 73.7271 53.112 73.9079C53.1841 74.0887 53.3896 74.1774 53.5715 74.1039C62.2498 70.6369 68.974 63.8444 72.4026 55.5689C72.4782 55.3891 72.3927 55.1814 72.2129 55.1072Z" fill="white"/>
<path d="M74.5614 43.3845C74.3661 43.3802 74.2047 43.5349 74.2008 43.7292C74.1506 45.8767 73.8854 47.9867 73.423 50.0364C73.3792 50.2264 73.4993 50.4157 73.6893 50.4591C73.8794 50.5019 74.0683 50.3818 74.1111 50.1918C74.5851 48.0973 74.8553 45.9396 74.9065 43.7455C74.9114 43.5512 74.7567 43.3898 74.5614 43.3845Z" fill="white"/>
</svg>
