<svg width="89" height="88" viewBox="0 0 89 88" fill="none" xmlns="http://www.w3.org/2000/svg">
<path d="M82.2667 6.23332L79.0767 6.01332C77.5 5.90332 42.9233 3.66666 27.23 19.3967C13.48 33.1833 17.0367 57.6033 18.5033 64.8267L5.23 78.0633L10.4 83.2333L23.6367 69.9967C28.6735 70.9855 33.7937 71.4889 38.9267 71.5C48.8267 71.5 60.9267 69.4467 69.0667 61.2333C84.8333 45.5767 82.5967 11 82.4867 9.42332L82.2667 6.23332ZM63.9333 56.1C54.9133 65.12 39.11 64.7167 30.1267 63.4333L38.67 55H55.5V47.6667H46.0033L53.3367 40.3333H66.5V33H60.67L69.0667 24.6033L63.8967 19.3967L55.5 27.83V22H48.1667V35.1633L40.8333 42.4967V33H33.5V49.83L24.92 58.41C23.82 49.4267 23.4167 33.6233 32.2533 24.6033C43.2167 13.8233 66.5 13.09 75.3 13.2C75.41 22 74.6767 45.2833 63.8967 56.0633L63.9333 56.1Z" fill="white"/>
</svg>
