<svg width="88" height="88" viewBox="0 0 88 88" fill="none" xmlns="http://www.w3.org/2000/svg">
<path d="M18.3333 73.3333H25.6666H63.8C68.9333 73.3333 73.3333 70.0333 74.4333 64.9L78.1 50.2333C78.8333 46.9333 78.1 43.6333 76.2666 40.7C74.0666 38.1333 71.1333 36.3 67.4666 36.3H57.2L59.7666 30.8C61.6 28.2333 62.3333 24.5667 62.3333 21.2667C62.3333 17.9667 60.5 15.0333 57.5666 13.9333L56.1 13.2C52.8 11.3667 48.4 12.4667 45.8333 15.4L27.1333 37.4C26.7666 36.6667 26.4 36.6667 25.6666 36.6667H18.3333C12.1 36.6667 7.33331 41.4333 7.33331 47.6667V62.3333C7.33331 68.5667 12.1 73.3333 18.3333 73.3333ZM29.3333 45.8333L51.7 19.8C52.0667 19.4333 52.4333 19.4333 52.8 19.4333L54.2666 20.1667C54.6333 20.1667 55 20.5333 55 21.2667C55 23.4667 54.2666 26.0333 53.5333 27.8667L48.0333 38.5C47.3 39.6 47.6666 41.0667 48.0333 42.1667C48.7666 43.2667 49.8666 44 51.3333 44H67.4666C68.5666 44 69.6666 44.3667 70.4 45.4667C71.1333 46.2 71.5 47.6667 71.1333 48.7667L67.4666 63.4333C67.1 64.9 65.6333 66.3667 63.8 66.3667H29.3333V45.8333ZM14.6666 47.6667C14.6666 45.4667 16.1333 44 18.3333 44H22V44.7333V66H18.3333C16.1333 66 14.6666 64.5333 14.6666 62.3333V47.6667Z" fill="white"/>
</svg>
